<svg id="Filled" height="512" viewBox="0 0 512 512" width="512" xmlns="http://www.w3.org/2000/svg"><circle cx="256" cy="256" fill="#7e8589" r="232"/><circle cx="256" cy="256" fill="#ffd33a" r="96"/><circle cx="256" cy="256" fill="#e9eef2" r="64"/><circle cx="256" cy="256" fill="#7e8589" r="16"/><path d="m256 280a24 24 0 1 1 24-24 24.027 24.027 0 0 1 -24 24zm0-32a8 8 0 1 0 8 8 8.009 8.009 0 0 0 -8-8z"/><path d="m256 360a104 104 0 1 1 104-104 104.118 104.118 0 0 1 -104 104zm0-192a88 88 0 1 0 88 88 88.1 88.1 0 0 0 -88-88z"/><path d="m256 328a72 72 0 1 1 72-72 72.081 72.081 0 0 1 -72 72zm0-128a56 56 0 1 0 56 56 56.064 56.064 0 0 0 -56-56z"/><path d="m256 464a8 8 0 0 1 0-16c105.869 0 192-86.131 192-192s-86.131-192-192-192a8 8 0 0 1 0-16c114.691 0 208 93.309 208 208s-93.309 208-208 208z"/><path d="m407.825 336a8 8 0 0 1 -7.221-11.434 159.174 159.174 0 0 0 10.834-30.466 8 8 0 0 1 15.544 3.794 175.243 175.243 0 0 1 -11.925 33.535 8 8 0 0 1 -7.232 4.571z"/><path d="m424 264a8 8 0 0 1 -8-8c0-88.224-71.776-160-160-160s-160 71.776-160 160a8 8 0 0 1 -16 0c0-97.047 78.953-176 176-176s176 78.953 176 176a8 8 0 0 1 -8 8z"/><path d="m256 432a174.669 174.669 0 0 1 -125.714-52.832 8 8 0 1 1 11.428-11.2 159.987 159.987 0 0 0 228.572 0 8 8 0 1 1 11.428 11.2 174.669 174.669 0 0 1 -125.714 52.832z"/><path d="m256 16c-132.548 0-240 107.452-240 240s107.452 240 240 240 240-107.452 240-240-107.452-240-240-240zm0 464c-123.712 0-224-100.288-224-224s100.288-224 224-224 224 100.288 224 224-100.288 224-224 224z"/></svg>